<?xml version="1.0" encoding="UTF-8"?>
<svg id="Layer_2" data-name="Layer 2" xmlns="http://www.w3.org/2000/svg" viewBox="0 0 293.68 36.4">
  <defs>
    <style>
      .cls-1 {
        opacity: .5;
      }

      .cls-1, .cls-2 {
        fill: #0b8040;
      }
    </style>
  </defs>
  <g id="Layer_1-2" data-name="Layer 1">
    <g>
      <path class="cls-2" d="M8,21.8v6.2h14v7.7H0V.7H21.75v7.7H8v5.8h12.5v7.6H8Z"/>
      <path class="cls-2" d="M59.04,35.7h-8.75l-1.75-5.5h-13l-1.75,5.5h-8.75L36.94,.7h10.2l11.9,35ZM42.04,9.85l-4.1,12.85h8.2l-4.1-12.85Z"/>
      <path class="cls-2" d="M89.77,35.7h-8.6l-6.6-11.5h-3.8v11.5h-8V.7h14c3.33,0,6.17,1.17,8.5,3.5,2.33,2.33,3.5,5.17,3.5,8.5,0,2.1-.59,4.07-1.78,5.9-1.18,1.83-2.74,3.25-4.67,4.25l7.45,12.85Zm-13-27.5h-6v9h6c1.1,0,2.04-.43,2.83-1.3,.78-.87,1.17-1.93,1.17-3.2s-.39-2.33-1.17-3.2c-.78-.87-1.73-1.3-2.83-1.3Z"/>
      <path class="cls-2" d="M114.17,19.7V.7h8V35.7h-6l-13.5-19v19h-8V.7h6l13.5,19Z"/>
      <path class="cls-1" d="M159.92,35.7h-8.75l-1.75-5.5h-13l-1.75,5.5h-8.75L137.82,.7h10.2l11.9,35Zm-17-25.85l-4.1,12.85h8.2l-4.1-12.85Z"/>
      <path class="cls-2" d="M185.35,17.55c2.87,1.87,4.3,4.5,4.3,7.9,0,3.03-1.08,5.5-3.25,7.4-2.17,1.9-4.85,2.85-8.05,2.85h-14.7V.7h13.7c3.1,0,5.72,.93,7.85,2.8,2.13,1.83,3.2,4.23,3.2,7.2s-1.02,5.12-3.05,6.85Zm-8-9.35h-5.7v6.2h5.7c.9,0,1.63-.29,2.2-.88,.57-.58,.85-1.33,.85-2.23s-.28-1.64-.85-2.23c-.57-.58-1.3-.88-2.2-.88Zm-5.7,20h6.7c1,0,1.8-.31,2.4-.92,.6-.62,.9-1.43,.9-2.43s-.3-1.81-.9-2.42c-.6-.62-1.4-.93-2.4-.93h-6.7v6.7Z"/>
      <path class="cls-2" d="M194.92,24.4V.7h8V23.7c0,3.27,1.83,4.9,5.5,4.9s5.5-1.63,5.5-4.9V.7h8V24.4c0,3.7-1.27,6.62-3.8,8.75-2.57,2.17-5.8,3.25-9.7,3.25s-7.13-1.08-9.7-3.25c-2.53-2.13-3.8-5.05-3.8-8.75Z"/>
      <path class="cls-2" d="M245.49,36.4c-5.23,0-9.58-1.73-13.05-5.2-3.43-3.47-5.15-7.8-5.15-13s1.72-9.52,5.15-12.95c3.43-3.5,7.78-5.25,13.05-5.25,3.13,0,6.03,.73,8.7,2.18,2.67,1.45,4.77,3.42,6.3,5.92l-6.9,4c-.77-1.37-1.86-2.42-3.28-3.17s-3.02-1.12-4.82-1.12c-3.13,0-5.62,.95-7.45,2.85-1.83,1.87-2.75,4.38-2.75,7.55s.92,5.68,2.75,7.55c1.83,1.9,4.32,2.85,7.45,2.85,1.77,0,3.38-.38,4.82-1.15,1.45-.77,2.54-1.82,3.28-3.15l6.9,4c-1.5,2.5-3.58,4.48-6.25,5.92-2.67,1.45-5.58,2.18-8.75,2.18Z"/>
      <path class="cls-2" d="M281.38,17.75l12.3,17.95h-9.1l-11.2-16.2v16.2h-8V.7h8V15.9l10.7-15.2h9.1l-11.8,17.05Z"/>
    </g>
  </g>
</svg>